<?xml version="1.0" encoding="UTF-8" standalone="no"?>
<!-- Created with Inkscape (http://www.inkscape.org/) -->

<svg
   xmlns:dc="http://purl.org/dc/elements/1.1/"
   xmlns:cc="http://creativecommons.org/ns#"
   xmlns:rdf="http://www.w3.org/1999/02/22-rdf-syntax-ns#"
   xmlns:svg="http://www.w3.org/2000/svg"
   xmlns="http://www.w3.org/2000/svg"
   xmlns:sodipodi="http://sodipodi.sourceforge.net/DTD/sodipodi-0.dtd"
   xmlns:inkscape="http://www.inkscape.org/namespaces/inkscape"
   width="1523.1206"
   height="1182.0176"
   viewBox="0 0 1523.1206 1182.0176"
   id="svg2"
   version="1.1"
   inkscape:version="0.92.2 2405546, 2018-03-11"
   sodipodi:docname="oblique.svg"
   inkscape:export-filename="/home/dllu/Pictures/puppy/oblique.png"
   inkscape:export-xdpi="300"
   inkscape:export-ydpi="300">
  <defs
     id="defs4" />
  <sodipodi:namedview
     id="base"
     pagecolor="#ffffff"
     bordercolor="#666666"
     borderopacity="1.0"
     inkscape:pageopacity="0.0"
     inkscape:pageshadow="2"
     inkscape:zoom="1"
     inkscape:cx="1305.696"
     inkscape:cy="698.16096"
     inkscape:document-units="px"
     inkscape:current-layer="layer1"
     showgrid="false"
     units="px"
     inkscape:window-width="1912"
     inkscape:window-height="660"
     inkscape:window-x="3840"
     inkscape:window-y="1448"
     inkscape:window-maximized="0"
     fit-margin-top="22"
     fit-margin-right="22"
     fit-margin-bottom="22"
     fit-margin-left="22" />
  <metadata
     id="metadata7">
    <rdf:RDF>
      <cc:Work
         rdf:about="">
        <dc:format>image/svg+xml</dc:format>
        <dc:type
           rdf:resource="http://purl.org/dc/dcmitype/StillImage" />
        <dc:title></dc:title>
      </cc:Work>
    </rdf:RDF>
  </metadata>
  <g
     inkscape:label="Layer 1"
     inkscape:groupmode="layer"
     id="layer1"
     transform="translate(-1161.0153,431.49446)">
    <path
       sodipodi:nodetypes="csc"
       inkscape:connector-curvature="0"
       id="path4277"
       d="m 1335,-229.6378 c -97,119 -161.7397,351.69367 -144,416 16,58 86,74 122,55"
       style="fill:#780096;fill-opacity:1;fill-rule:evenodd;stroke:#000000;stroke-width:10;stroke-linecap:round;stroke-linejoin:miter;stroke-miterlimit:4;stroke-dasharray:none;stroke-opacity:1" />
    <path
       style="opacity:0.25;fill:#000000;fill-opacity:1;fill-rule:evenodd;stroke:none;stroke-width:10;stroke-linecap:round;stroke-linejoin:miter;stroke-miterlimit:4;stroke-dasharray:none;stroke-opacity:1"
       d="m 1356,-221.6378 c -97,119 -161.7397,351.69367 -144,416 16,58 86,74 122,55"
       id="path3342"
       inkscape:connector-curvature="0"
       sodipodi:nodetypes="csc" />
    <path
       style="fill:#780096;fill-opacity:1;fill-rule:evenodd;stroke:#000000;stroke-width:10;stroke-linecap:round;stroke-linejoin:miter;stroke-miterlimit:4;stroke-dasharray:none;stroke-opacity:1"
       d="m 2079,-294.6378 c -174.8689,-148.42794 -561,-150 -708,17 -138.1114,156.90203 -169,461 -31.5,632 -137.5,58 -172.2712,175.97241 -114.5,221 68,53 189,-34 243,-88.5 72,32.5 313,69.5 402,60.5 28,111 61,180 167,176 106,-4 106,-135 114,-176 0,0 71.6674,-13.46812 179,-61 96.3106,-42.65083 134,-70 134,-70 0,0 16.0997,27.85987 67,45 45.5887,15.3515 123,3 126,-66 2.8043,-64.49911 -37,-100 -107,-139 -126.0272,-70.21515 -323.5,-84 -323.5,-84 0,0 16.9082,-327.45109 -147.5,-467 z"
       id="path3336"
       inkscape:connector-curvature="0"
       sodipodi:nodetypes="sscsccscscssscs" />
    <path
       style="fill:#780096;fill-opacity:1;fill-rule:evenodd;stroke:#000000;stroke-width:10;stroke-linecap:round;stroke-linejoin:miter;stroke-miterlimit:4;stroke-dasharray:none;stroke-opacity:1"
       d="m 2390,208.3622 c 0,0 58,-101 -13,-130 -94.7938,-38.718605 -144,119 -144,119"
       id="path4236"
       inkscape:connector-curvature="0"
       sodipodi:nodetypes="csc" />
    <path
       style="fill:#ffffff;fill-rule:evenodd;stroke:#000000;stroke-width:10;stroke-linecap:round;stroke-linejoin:miter;stroke-miterlimit:4;stroke-dasharray:none;stroke-opacity:1"
       d="m 1324,307.3622 c -59.4574,-94.88319 -24.4729,-153.68458 33,-179 84,-37 317.0682,-2.13616 421,61 107,65 166.5129,173.0841 109,219 -58.357,46.58981 -178,33 -297,11 -119,-22 -223,-52 -266,-112 z"
       id="path3346"
       inkscape:connector-curvature="0"
       sodipodi:nodetypes="cssssc" />
    <path
       style="fill:#000000;fill-rule:evenodd;stroke:#000000;stroke-width:1px;stroke-linecap:butt;stroke-linejoin:miter;stroke-opacity:1"
       d="m 1555,145.3622 c 108.9721,13.22254 49.7996,82.95225 -3,77 -56.9608,-6.42135 -87.9394,-88.03448 3,-77 z"
       id="path3348"
       inkscape:connector-curvature="0"
       sodipodi:nodetypes="ccc" />
    <ellipse
       style="fill:#000000;stroke:none"
       id="path3350"
       cx="1848"
       cy="74.362198"
       rx="81"
       ry="85" />
    <ellipse
       style="fill:#000000;stroke:none"
       id="path3352"
       cx="1305.3602"
       cy="-356.49301"
       rx="69.398369"
       ry="80.242447"
       transform="matrix(0.95998284,0.28005882,-0.25491803,0.96696267,0,0)" />
    <circle
       style="fill:#ffffff;stroke:none;stroke-width:10;stroke-linecap:round;stroke-linejoin:miter;stroke-miterlimit:4;stroke-dasharray:none"
       id="path4161"
       cx="1819"
       cy="36.362202"
       r="20" />
    <ellipse
       style="fill:#ffffff;stroke:none;stroke-width:10;stroke-linecap:round;stroke-linejoin:miter;stroke-miterlimit:4;stroke-dasharray:none"
       id="path4161-3"
       cx="1189.1727"
       cy="-568.4646"
       rx="16.131327"
       ry="18.435802"
       transform="rotate(25)" />
    <g
       id="g4229"
       transform="translate(6,13)">
      <path
         inkscape:connector-curvature="0"
         id="path4197"
         d="m 1561,231.3622 -36,29.5 69,7.5 z"
         style="fill:#ff8080;fill-rule:evenodd;stroke:#000000;stroke-width:0;stroke-linecap:butt;stroke-linejoin:miter;stroke-miterlimit:4;stroke-dasharray:none;stroke-opacity:1" />
      <path
         sodipodi:nodetypes="csc"
         inkscape:connector-curvature="0"
         id="path3359"
         d="m 1528,258.3622 c 0,0 -6,40.5 22,46.5 28,6 38.5,-40 38.5,-40"
         style="fill:#ff8080;fill-rule:evenodd;stroke:#000000;stroke-width:10;stroke-linecap:round;stroke-linejoin:miter;stroke-miterlimit:4;stroke-dasharray:none;stroke-opacity:1" />
      <path
         sodipodi:nodetypes="ccc"
         inkscape:connector-curvature="0"
         id="path3354"
         d="m 1493,266.3622 c 41,1 61,-35 61,-35 0,0 41,47 73,48"
         style="fill:none;fill-rule:evenodd;stroke:#000000;stroke-width:10;stroke-linecap:round;stroke-linejoin:miter;stroke-miterlimit:4;stroke-dasharray:none;stroke-opacity:1" />
    </g>
    <ellipse
       style="fill:#ffffff;stroke:none;stroke-width:10;stroke-linecap:round;stroke-linejoin:miter;stroke-miterlimit:4;stroke-dasharray:none"
       id="path4161-3-6"
       cx="1262.6204"
       cy="-522.16718"
       rx="12.507855"
       ry="14.294692"
       transform="rotate(25)" />
    <circle
       style="fill:#ffffff;stroke:none;stroke-width:10;stroke-linecap:round;stroke-linejoin:miter;stroke-miterlimit:4;stroke-dasharray:none"
       id="path4161-7"
       cx="1877"
       cy="117.3622"
       r="16" />
    <path
       style="opacity:0.25;fill:#000000;fill-rule:evenodd;stroke:none;stroke-width:1px;stroke-linecap:butt;stroke-linejoin:miter;stroke-opacity:1"
       d="m 2022,-127.6378 c 0,80 4.6698,220.418453 24,313 19,91 67,156 132,152 54.0457,-3.32589 76,-64 75,-94"
       id="path4238"
       inkscape:connector-curvature="0"
       sodipodi:nodetypes="cssc" />
    <path
       style="fill:#780096;fill-opacity:1;fill-rule:evenodd;stroke:#000000;stroke-width:10;stroke-linecap:round;stroke-linejoin:miter;stroke-miterlimit:4;stroke-dasharray:none;stroke-opacity:1"
       d="m 2021,-130.6378 c 54.8442,114.538948 36.3571,307.19779 103,380 58.2801,63.66653 134.6822,64.84737 155,7 28.3136,-80.6123 5,-135 -28,-220 -31.603,-81.401762 -26,-107 -89,-220"
       id="path3338"
       inkscape:connector-curvature="0"
       sodipodi:nodetypes="csssc" />
    <path
       style="opacity:0.25;fill:#000000;fill-opacity:1;fill-rule:evenodd;stroke:none;stroke-width:1px;stroke-linecap:butt;stroke-linejoin:miter;stroke-opacity:1"
       d="m 2613.6367,1406.5703 c 17.4869,36.0929 18.7119,106.4508 -8.1367,128.9297 -24.5795,19.2834 -65,25 -98.5,6.5 -34.241,-18.9092 -34.5413,-42.6879 -58.5,-48.5 -23.9331,-5.8059 -57,28 -151,70 -94,42 -144.9739,22.7812 -168,55 -24.1417,33.7797 -13.4781,109.6786 -58,160.5 -31.787,36.2846 -114,38.5 -150.5,1 -2.4017,-2.4675 -4.625,-5.0152 -6.7168,-7.6172 25.5787,39.4372 62.2785,60.8979 122.7168,58.6172 106,-4 106,-135 114,-176 0,0 71.6674,-13.4681 179,-61 96.3106,-42.6508 134,-70 134,-70 0,0 16.0997,27.8599 67,45 45.5887,15.3515 123,3 126,-66 2.3801,-54.7427 -2.6128,-55.5964 -43.3633,-96.4297 z M 1460.748,1559.998 c -26.9895,0.9282 -97.3418,61.2989 -134.748,80.002 -38,19 -100,20 -127,-22 l -0.4883,-0.039 c -1.8653,26.5503 7.0815,49.9132 26.4883,65.0391 68,53 189,-34 243,-88.5 72,32.5 313,69.5 402,60.5 5.9479,23.5791 12.1248,45.2546 19.1758,64.7461 -5.3218,-19.7221 -7.8012,-38.9898 -11.6758,-54.2461 -7.6664,-30.1865 -13,-35.5 -35,-50.5 -22,-15 -88,1.5 -210,-17.5 -122,-19 -144.5,-36.5 -170.5,-37.5 -0.4062,-0.016 -0.8235,-0.017 -1.252,0 z"
       transform="translate(0,-1107.6378)"
       id="path4240"
       inkscape:connector-curvature="0"
       sodipodi:nodetypes="ccsssssscscscssccsccscccsssccc" />
    <path
       style="opacity:0.25;fill:#000000;fill-opacity:1;fill-rule:evenodd;stroke:none;stroke-width:1px;stroke-linecap:butt;stroke-linejoin:miter;stroke-opacity:1"
       d="m 2373.5,77.3622 c 19.5,35 10.5,77 -9.5,100.5 -20,23.5 -65.3405,44.28309 -57,57.5 6,9.50806 22.2671,1.54386 46,-7 25,-9 39,-21.5 39,-21.5 0,0 23.5,-44 22,-73 -1.5,-29 -11,-40.5 -20,-46.5 -9,-6 -20.5,-10 -20.5,-10 z"
       id="path4275"
       inkscape:connector-curvature="0"
       sodipodi:nodetypes="cscscssc" />
    <path
       style="opacity:0.25;fill:#000000;fill-opacity:1;fill-rule:evenodd;stroke:none;stroke-width:1px;stroke-linecap:butt;stroke-linejoin:miter;stroke-opacity:1"
       d="m 2125.6667,-239.6378 c 55.6666,103.33334 82.8369,222.648337 106.3333,284 24,62.66663 46.3333,129.99997 36.6667,172.99997 -7.7794,34.60465 -14,59.00003 -53.3334,65 -32.335,4.93243 -69.6666,-15.33327 -69.6666,-15.33327 0,0 36,38.6666 82.3333,29.6666 46.3333,-9 58.3333,-48.6666 64.3333,-90.6666 6,-42 -17.6666,-109 -43.3333,-174.3334 -25.6667,-65.3333 -40.6667,-130.6666 -62,-173.99997 -21.3333,-43.33333 -61.3333,-97.33333 -61.3333,-97.33333 z"
       id="path4279"
       inkscape:connector-curvature="0"
       sodipodi:nodetypes="cssscssssc" />
  </g>
</svg>
