<svg xmlns="http://www.w3.org/2000/svg" width="1100" height="720" viewBox="0 0 1100 720">

<style>
    .ring { fill: none; stroke: #000; stroke-width: 3 }
    .ring.inner { stroke-width: 2 }
    .tick { stroke: #000; stroke-width: 3; stroke-linecap: round }
    .true { stroke: #ff33cc; stroke-width: 3; fill: none }
    .measured { stroke: #1e9d3a; stroke-width: 3; fill: none }
    .delta { stroke: #1e90ff; stroke-width: 4; fill: none }
    .zero { stroke: #888; stroke-width: 2; stroke-dasharray: 6 6; fill: none }
    line { stroke: #000; stroke-width: 2; fill: none }
    .axis { stroke: #000; stroke-width: 2; fill: none }
    .dotted { stroke: #000; stroke-width: 2; stroke-dasharray: 6 6; fill: none }
    .cross line { stroke: #000; stroke-width: 3; stroke-linecap: round }
    .cross.green line { stroke: #1e9d3a }
    .label { font-family: ui-sans-serif, system-ui, -apple-system, Segoe UI, Roboto, Helvetica, Arial, "Noto Sans", "Apple Color Emoji", "Segoe UI Emoji"; font-size: 20px; fill: #000 }
    .label.green { fill: #1e9d3a }
    .label.label-true { fill: #ff33cc }
    .label.label-measured { fill: #1e9d3a }
</style>

<g>
<circle class="ring" cx="300.00" cy="320.00" r="250.00"/>
<circle class="ring inner" cx="300.00" cy="320.00" r="230.00"/>
<line class="tick" x1="530.00" y1="320.00" x2="550.00" y2="320.00"/>
<line class="tick" x1="529.55" y1="334.44" x2="549.51" y2="335.70"/>
<line class="tick" x1="528.19" y1="348.83" x2="548.03" y2="351.33"/>
<line class="tick" x1="525.93" y1="363.10" x2="545.57" y2="366.85"/>
<line class="tick" x1="522.77" y1="377.20" x2="542.15" y2="382.17"/>
<line class="tick" x1="518.74" y1="391.07" x2="537.76" y2="397.25"/>
<line class="tick" x1="513.85" y1="404.67" x2="532.44" y2="412.03"/>
<line class="tick" x1="508.11" y1="417.93" x2="526.21" y2="426.44"/>
<line class="tick" x1="501.55" y1="430.80" x2="519.08" y2="440.44"/>
<line class="tick" x1="494.20" y1="443.24" x2="511.08" y2="453.96"/>
<line class="tick" x1="486.07" y1="455.19" x2="502.25" y2="466.95"/>
<line class="tick" x1="477.22" y1="466.61" x2="492.63" y2="479.36"/>
<line class="tick" x1="467.66" y1="477.45" x2="482.24" y2="491.14"/>
<line class="tick" x1="457.45" y1="487.66" x2="471.14" y2="502.24"/>
<line class="tick" x1="446.61" y1="497.22" x2="459.36" y2="512.63"/>
<line class="tick" x1="435.19" y1="506.07" x2="446.95" y2="522.25"/>
<line class="tick" x1="423.24" y1="514.20" x2="433.96" y2="531.08"/>
<line class="tick" x1="410.80" y1="521.55" x2="420.44" y2="539.08"/>
<line class="tick" x1="397.93" y1="528.11" x2="406.44" y2="546.21"/>
<line class="tick" x1="384.67" y1="533.85" x2="392.03" y2="552.44"/>
<line class="tick" x1="371.07" y1="538.74" x2="377.25" y2="557.76"/>
<line class="tick" x1="357.20" y1="542.77" x2="362.17" y2="562.15"/>
<line class="tick" x1="343.10" y1="545.93" x2="346.85" y2="565.57"/>
<line class="tick" x1="328.83" y1="548.19" x2="331.33" y2="568.03"/>
<line class="tick" x1="314.44" y1="549.55" x2="315.70" y2="569.51"/>
<line class="tick" x1="300.00" y1="550.00" x2="300.00" y2="570.00"/>
<line class="tick" x1="285.56" y1="549.55" x2="284.30" y2="569.51"/>
<line class="tick" x1="271.17" y1="548.19" x2="268.67" y2="568.03"/>
<line class="tick" x1="256.90" y1="545.93" x2="253.15" y2="565.57"/>
<line class="tick" x1="242.80" y1="542.77" x2="237.83" y2="562.15"/>
<line class="tick" x1="228.93" y1="538.74" x2="222.75" y2="557.76"/>
<line class="tick" x1="215.33" y1="533.85" x2="207.97" y2="552.44"/>
<line class="tick" x1="202.07" y1="528.11" x2="193.56" y2="546.21"/>
<line class="tick" x1="189.20" y1="521.55" x2="179.56" y2="539.08"/>
<line class="tick" x1="176.76" y1="514.20" x2="166.04" y2="531.08"/>
<line class="tick" x1="164.81" y1="506.07" x2="153.05" y2="522.25"/>
<line class="tick" x1="153.39" y1="497.22" x2="140.64" y2="512.63"/>
<line class="tick" x1="142.55" y1="487.66" x2="128.86" y2="502.24"/>
<line class="tick" x1="132.34" y1="477.45" x2="117.76" y2="491.14"/>
<line class="tick" x1="122.78" y1="466.61" x2="107.37" y2="479.36"/>
<line class="tick" x1="113.93" y1="455.19" x2="97.75" y2="466.95"/>
<line class="tick" x1="105.80" y1="443.24" x2="88.92" y2="453.96"/>
<line class="tick" x1="98.45" y1="430.80" x2="80.92" y2="440.44"/>
<line class="tick" x1="91.89" y1="417.93" x2="73.79" y2="426.44"/>
<line class="tick" x1="86.15" y1="404.67" x2="67.56" y2="412.03"/>
<line class="tick" x1="81.26" y1="391.07" x2="62.24" y2="397.25"/>
<line class="tick" x1="77.23" y1="377.20" x2="57.85" y2="382.17"/>
<line class="tick" x1="74.07" y1="363.10" x2="54.43" y2="366.85"/>
<line class="tick" x1="71.81" y1="348.83" x2="51.97" y2="351.33"/>
<line class="tick" x1="70.45" y1="334.44" x2="50.49" y2="335.70"/>
<line class="tick" x1="70.00" y1="320.00" x2="50.00" y2="320.00"/>
<line class="tick" x1="70.45" y1="305.56" x2="50.49" y2="304.30"/>
<line class="tick" x1="71.81" y1="291.17" x2="51.97" y2="288.67"/>
<line class="tick" x1="74.07" y1="276.90" x2="54.43" y2="273.15"/>
<line class="tick" x1="77.23" y1="262.80" x2="57.85" y2="257.83"/>
<line class="tick" x1="81.26" y1="248.93" x2="62.24" y2="242.75"/>
<line class="tick" x1="86.15" y1="235.33" x2="67.56" y2="227.97"/>
<line class="tick" x1="91.89" y1="222.07" x2="73.79" y2="213.56"/>
<line class="tick" x1="98.45" y1="209.20" x2="80.92" y2="199.56"/>
<line class="tick" x1="105.80" y1="196.76" x2="88.92" y2="186.04"/>
<line class="tick" x1="113.93" y1="184.81" x2="97.75" y2="173.05"/>
<line class="tick" x1="122.78" y1="173.39" x2="107.37" y2="160.64"/>
<line class="tick" x1="132.34" y1="162.55" x2="117.76" y2="148.86"/>
<line class="tick" x1="142.55" y1="152.34" x2="128.86" y2="137.76"/>
<line class="tick" x1="153.39" y1="142.78" x2="140.64" y2="127.37"/>
<line class="tick" x1="164.81" y1="133.93" x2="153.05" y2="117.75"/>
<line class="tick" x1="176.76" y1="125.80" x2="166.04" y2="108.92"/>
<line class="tick" x1="189.20" y1="118.45" x2="179.56" y2="100.92"/>
<line class="tick" x1="202.07" y1="111.89" x2="193.56" y2="93.79"/>
<line class="tick" x1="215.33" y1="106.15" x2="207.97" y2="87.56"/>
<line class="tick" x1="228.93" y1="101.26" x2="222.75" y2="82.24"/>
<line class="tick" x1="242.80" y1="97.23" x2="237.83" y2="77.85"/>
<line class="tick" x1="256.90" y1="94.07" x2="253.15" y2="74.43"/>
<line class="tick" x1="271.17" y1="91.81" x2="268.67" y2="71.97"/>
<line class="tick" x1="285.56" y1="90.45" x2="284.30" y2="70.49"/>
<line class="tick" x1="300.00" y1="90.00" x2="300.00" y2="70.00"/>
<line class="tick" x1="314.44" y1="90.45" x2="315.70" y2="70.49"/>
<line class="tick" x1="328.83" y1="91.81" x2="331.33" y2="71.97"/>
<line class="tick" x1="343.10" y1="94.07" x2="346.85" y2="74.43"/>
<line class="tick" x1="357.20" y1="97.23" x2="362.17" y2="77.85"/>
<line class="tick" x1="371.07" y1="101.26" x2="377.25" y2="82.24"/>
<line class="tick" x1="384.67" y1="106.15" x2="392.03" y2="87.56"/>
<line class="tick" x1="397.93" y1="111.89" x2="406.44" y2="93.79"/>
<line class="tick" x1="410.80" y1="118.45" x2="420.44" y2="100.92"/>
<line class="tick" x1="423.24" y1="125.80" x2="433.96" y2="108.92"/>
<line class="tick" x1="435.19" y1="133.93" x2="446.95" y2="117.75"/>
<line class="tick" x1="446.61" y1="142.78" x2="459.36" y2="127.37"/>
<line class="tick" x1="457.45" y1="152.34" x2="471.14" y2="137.76"/>
<line class="tick" x1="467.66" y1="162.55" x2="482.24" y2="148.86"/>
<line class="tick" x1="477.22" y1="173.39" x2="492.63" y2="160.64"/>
<line class="tick" x1="486.07" y1="184.81" x2="502.25" y2="173.05"/>
<line class="tick" x1="494.20" y1="196.76" x2="511.08" y2="186.04"/>
<line class="tick" x1="501.55" y1="209.20" x2="519.08" y2="199.56"/>
<line class="tick" x1="508.11" y1="222.07" x2="526.21" y2="213.56"/>
<line class="tick" x1="513.85" y1="235.33" x2="532.44" y2="227.97"/>
<line class="tick" x1="518.74" y1="248.93" x2="537.76" y2="242.75"/>
<line class="tick" x1="522.77" y1="262.80" x2="542.15" y2="257.83"/>
<line class="tick" x1="525.93" y1="276.90" x2="545.57" y2="273.15"/>
<line class="tick" x1="528.19" y1="291.17" x2="548.03" y2="288.67"/>
<line class="tick" x1="529.55" y1="305.56" x2="549.51" y2="304.30"/>
<line class="true" x1="300.00" y1="320.00" x2="450.45" y2="519.66"/>
<line class="measured" x1="330.00" y1="320.00" x2="450.45" y2="519.66"/>
<g class="cross"><line x1="291.00" y1="320.00" x2="309.00" y2="320.00"/><line x1="300.00" y1="311.00" x2="300.00" y2="329.00"/></g>
<g class="cross green"><line x1="321.00" y1="320.00" x2="339.00" y2="320.00"/><line x1="330.00" y1="311.00" x2="330.00" y2="329.00"/></g>
<text class="label" x="212.00" y="398.00" text-anchor="start">encoder</text>
<text class="label" x="212.00" y="422.00" text-anchor="start">center</text>
<text class="label green" x="344.00" y="260.00" text-anchor="start">rotation</text>
<text class="label green" x="344.00" y="284.00" text-anchor="start">center</text>
<text class="label label-true" x="720.00" y="70.00" text-anchor="start">true direction</text>
<text class="label label-measured" x="720.00" y="100.00" text-anchor="start">measured direction</text>
<line class="true" x1="700.0" y1="70.0" x2="715.0" y2="55.0"/>
<line class="measured" x1="700.0" y1="100.0" x2="715.0" y2="85.0"/>
</g>
<g>
<line x1="640.00" y1="120.00" x2="640.00" y2="350.00"/>
<line x1="640.00" y1="350.00" x2="1020.00" y2="350.00"/>
<path d="M 634.0,130.0 L 640.0,120.0 L 646.0,130.0" class="axis"/>
<path d="M 1010.0,344.0 L 1020.0,350.0 L 1010.0,356.0" class="axis"/>
<text class="label" x="618.00" y="140.00" text-anchor="end">θ</text>
<text class="label" x="1038.00" y="354.00" text-anchor="start">t</text>
<path class="true" d="M 640.00,350.00 L 641.06,349.36 L 642.12,348.72 L 643.18,348.08 L 644.23,347.44 L 645.29,346.80 L 646.35,346.16 L 647.41,345.52 L 648.47,344.87 L 649.53,344.23 L 650.58,343.59 L 651.64,342.95 L 652.70,342.31 L 653.76,341.67 L 654.82,341.03 L 655.88,340.39 L 656.94,339.75 L 657.99,339.11 L 659.05,338.47 L 660.11,337.83 L 661.17,337.19 L 662.23,336.55 L 663.29,335.91 L 664.35,335.26 L 665.40,334.62 L 666.46,333.98 L 667.52,333.34 L 668.58,332.70 L 669.64,332.06 L 670.70,331.42 L 671.75,330.78 L 672.81,330.14 L 673.87,329.50 L 674.93,328.86 L 675.99,328.22 L 677.05,327.58 L 678.11,326.94 L 679.16,326.30 L 680.22,325.65 L 681.28,325.01 L 682.34,324.37 L 683.40,323.73 L 684.46,323.09 L 685.52,322.45 L 686.57,321.81 L 687.63,321.17 L 688.69,320.53 L 689.75,319.89 L 690.81,319.25 L 691.87,318.61 L 692.92,317.97 L 693.98,317.33 L 695.04,316.69 L 696.10,316.04 L 697.16,315.40 L 698.22,314.76 L 699.28,314.12 L 700.33,313.48 L 701.39,312.84 L 702.45,312.20 L 703.51,311.56 L 704.57,310.92 L 705.63,310.28 L 706.69,309.64 L 707.74,309.00 L 708.80,308.36 L 709.86,307.72 L 710.92,307.08 L 711.98,306.43 L 713.04,305.79 L 714.09,305.15 L 715.15,304.51 L 716.21,303.87 L 717.27,303.23 L 718.33,302.59 L 719.39,301.95 L 720.45,301.31 L 721.50,300.67 L 722.56,300.03 L 723.62,299.39 L 724.68,298.75 L 725.74,298.11 L 726.80,297.47 L 727.86,296.82 L 728.91,296.18 L 729.97,295.54 L 731.03,294.90 L 732.09,294.26 L 733.15,293.62 L 734.21,292.98 L 735.26,292.34 L 736.32,291.70 L 737.38,291.06 L 738.44,290.42 L 739.50,289.78 L 740.56,289.14 L 741.62,288.50 L 742.67,287.86 L 743.73,287.21 L 744.79,286.57 L 745.85,285.93 L 746.91,285.29 L 747.97,284.65 L 749.03,284.01 L 750.08,283.37 L 751.14,282.73 L 752.20,282.09 L 753.26,281.45 L 754.32,280.81 L 755.38,280.17 L 756.43,279.53 L 757.49,278.89 L 758.55,278.25 L 759.61,277.60 L 760.67,276.96 L 761.73,276.32 L 762.79,275.68 L 763.84,275.04 L 764.90,274.40 L 765.96,273.76 L 767.02,273.12 L 768.08,272.48 L 769.14,271.84 L 770.19,271.20 L 771.25,270.56 L 772.31,269.92 L 773.37,269.28 L 774.43,268.64 L 775.49,267.99 L 776.55,267.35 L 777.60,266.71 L 778.66,266.07 L 779.72,265.43 L 780.78,264.79 L 781.84,264.15 L 782.90,263.51 L 783.96,262.87 L 785.01,262.23 L 786.07,261.59 L 787.13,260.95 L 788.19,260.31 L 789.25,259.67 L 790.31,259.03 L 791.36,258.38 L 792.42,257.74 L 793.48,257.10 L 794.54,256.46 L 795.60,255.82 L 796.66,255.18 L 797.72,254.54 L 798.77,253.90 L 799.83,253.26 L 800.89,252.62 L 801.95,251.98 L 803.01,251.34 L 804.07,250.70 L 805.13,250.06 L 806.18,249.42 L 807.24,248.77 L 808.30,248.13 L 809.36,247.49 L 810.42,246.85 L 811.48,246.21 L 812.53,245.57 L 813.59,244.93 L 814.65,244.29 L 815.71,243.65 L 816.77,243.01 L 817.83,242.37 L 818.89,241.73 L 819.94,241.09 L 821.00,240.45 L 822.06,239.81 L 823.12,239.16 L 824.18,238.52 L 825.24,237.88 L 826.30,237.24 L 827.35,236.60 L 828.41,235.96 L 829.47,235.32 L 830.53,234.68 L 831.59,234.04 L 832.65,233.40 L 833.70,232.76 L 834.76,232.12 L 835.82,231.48 L 836.88,230.84 L 837.94,230.19 L 839.00,229.55 L 840.06,228.91 L 841.11,228.27 L 842.17,227.63 L 843.23,226.99 L 844.29,226.35 L 845.35,225.71 L 846.41,225.07 L 847.47,224.43 L 848.52,223.79 L 849.58,223.15 L 850.64,222.51 L 851.70,221.87 L 852.76,221.23 L 853.82,220.58 L 854.87,219.94 L 855.93,219.30 L 856.99,218.66 L 858.05,218.02 L 859.11,217.38 L 860.17,216.74 L 861.23,216.10 L 862.28,215.46 L 863.34,214.82 L 864.40,214.18 L 865.46,213.54 L 866.52,212.90 L 867.58,212.26 L 868.64,211.62 L 869.69,210.97 L 870.75,210.33 L 871.81,209.69 L 872.87,209.05 L 873.93,208.41 L 874.99,207.77 L 876.04,207.13 L 877.10,206.49 L 878.16,205.85 L 879.22,205.21 L 880.28,204.57 L 881.34,203.93 L 882.40,203.29 L 883.45,202.65 L 884.51,202.01 L 885.57,201.36 L 886.63,200.72 L 887.69,200.08 L 888.75,199.44 L 889.81,198.80 L 890.86,198.16 L 891.92,197.52 L 892.98,196.88 L 894.04,196.24 L 895.10,195.60 L 896.16,194.96 L 897.21,194.32 L 898.27,193.68 L 899.33,193.04 L 900.39,192.40 L 901.45,191.75 L 902.51,191.11 L 903.57,190.47 L 904.62,189.83 L 905.68,189.19 L 906.74,188.55 L 907.80,187.91 L 908.86,187.27 L 909.92,186.63 L 910.97,185.99 L 912.03,185.35 L 913.09,184.71 L 914.15,184.07 L 915.21,183.43 L 916.27,182.79 L 917.33,182.14 L 918.38,181.50 L 919.44,180.86 L 920.50,180.22 L 921.56,179.58 L 922.62,178.94 L 923.68,178.30 L 924.74,177.66 L 925.79,177.02 L 926.85,176.38 L 927.91,175.74 L 928.97,175.10 L 930.03,174.46 L 931.09,173.82 L 932.14,173.18 L 933.20,172.53 L 934.26,171.89 L 935.32,171.25 L 936.38,170.61 L 937.44,169.97 L 938.50,169.33 L 939.55,168.69 L 940.61,168.05 L 941.67,167.41 L 942.73,166.77 L 943.79,166.13 L 944.85,165.49 L 945.91,164.85 L 946.96,164.21 L 948.02,163.57 L 949.08,162.92 L 950.14,162.28 L 951.20,161.64 L 952.26,161.00 L 953.31,160.36 L 954.37,159.72 L 955.43,159.08 L 956.49,158.44 L 957.55,157.80 L 958.61,157.16 L 959.67,156.52 L 960.72,155.88 L 961.78,155.24 L 962.84,154.60 L 963.90,153.96 L 964.96,153.31 L 966.02,152.67 L 967.08,152.03 L 968.13,151.39 L 969.19,150.75 L 970.25,150.11 L 971.31,149.47 L 972.37,148.83 L 973.43,148.19 L 974.48,147.55 L 975.54,146.91 L 976.60,146.27 L 977.66,145.63 L 978.72,144.99 L 979.78,144.35 L 980.84,143.70 L 981.89,143.06 L 982.95,142.42 L 984.01,141.78 L 985.07,141.14 L 986.13,140.50 L 987.19,139.86 L 988.25,139.22 L 989.30,138.58 L 990.36,137.94 L 991.42,137.30 L 992.48,136.66 L 993.54,136.02 L 994.60,135.38 L 995.65,134.74 L 996.71,134.09 L 997.77,133.45 L 998.83,132.81 L 999.89,132.17 L 1000.95,131.53 L 1002.01,130.89 L 1003.06,130.25 L 1004.12,129.61 L 1005.18,128.97 L 1006.24,128.33 L 1007.30,127.69 L 1008.36,127.05 L 1009.42,126.41 L 1010.47,125.77 L 1011.53,125.13 L 1012.59,124.48 L 1013.65,123.84 L 1014.71,123.20 L 1015.77,122.56 L 1016.82,121.92 L 1017.88,121.28 L 1018.94,120.64 L 1020.00,120.00"/>
<path class="measured" d="M 640.00,350.00 L 641.06,349.43 L 642.12,348.86 L 643.18,348.28 L 644.23,347.71 L 645.29,347.14 L 646.35,346.57 L 647.41,345.99 L 648.47,345.42 L 649.53,344.85 L 650.58,344.28 L 651.64,343.70 L 652.70,343.13 L 653.76,342.56 L 654.82,341.98 L 655.88,341.41 L 656.94,340.84 L 657.99,340.26 L 659.05,339.69 L 660.11,339.11 L 661.17,338.54 L 662.23,337.96 L 663.29,337.39 L 664.35,336.81 L 665.40,336.24 L 666.46,335.66 L 667.52,335.08 L 668.58,334.51 L 669.64,333.93 L 670.70,333.35 L 671.75,332.77 L 672.81,332.19 L 673.87,331.61 L 674.93,331.03 L 675.99,330.45 L 677.05,329.87 L 678.11,329.29 L 679.16,328.71 L 680.22,328.13 L 681.28,327.54 L 682.34,326.96 L 683.40,326.38 L 684.46,325.79 L 685.52,325.21 L 686.57,324.62 L 687.63,324.03 L 688.69,323.45 L 689.75,322.86 L 690.81,322.27 L 691.87,321.68 L 692.92,321.09 L 693.98,320.50 L 695.04,319.91 L 696.10,319.31 L 697.16,318.72 L 698.22,318.13 L 699.28,317.53 L 700.33,316.94 L 701.39,316.34 L 702.45,315.74 L 703.51,315.14 L 704.57,314.55 L 705.63,313.94 L 706.69,313.34 L 707.74,312.74 L 708.80,312.14 L 709.86,311.53 L 710.92,310.93 L 711.98,310.32 L 713.04,309.72 L 714.09,309.11 L 715.15,308.50 L 716.21,307.89 L 717.27,307.28 L 718.33,306.67 L 719.39,306.05 L 720.45,305.44 L 721.50,304.82 L 722.56,304.21 L 723.62,303.59 L 724.68,302.97 L 725.74,302.35 L 726.80,301.73 L 727.86,301.11 L 728.91,300.48 L 729.97,299.86 L 731.03,299.23 L 732.09,298.60 L 733.15,297.98 L 734.21,297.35 L 735.26,296.71 L 736.32,296.08 L 737.38,295.45 L 738.44,294.81 L 739.50,294.18 L 740.56,293.54 L 741.62,292.90 L 742.67,292.26 L 743.73,291.62 L 744.79,290.97 L 745.85,290.33 L 746.91,289.68 L 747.97,289.04 L 749.03,288.39 L 750.08,287.74 L 751.14,287.08 L 752.20,286.43 L 753.26,285.78 L 754.32,285.12 L 755.38,284.46 L 756.43,283.81 L 757.49,283.15 L 758.55,282.48 L 759.61,281.82 L 760.67,281.16 L 761.73,280.49 L 762.79,279.82 L 763.84,279.15 L 764.90,278.48 L 765.96,277.81 L 767.02,277.14 L 768.08,276.46 L 769.14,275.79 L 770.19,275.11 L 771.25,274.43 L 772.31,273.75 L 773.37,273.07 L 774.43,272.39 L 775.49,271.70 L 776.55,271.02 L 777.60,270.33 L 778.66,269.64 L 779.72,268.95 L 780.78,268.26 L 781.84,267.57 L 782.90,266.87 L 783.96,266.18 L 785.01,265.48 L 786.07,264.78 L 787.13,264.09 L 788.19,263.39 L 789.25,262.68 L 790.31,261.98 L 791.36,261.28 L 792.42,260.57 L 793.48,259.87 L 794.54,259.16 L 795.60,258.45 L 796.66,257.74 L 797.72,257.03 L 798.77,256.32 L 799.83,255.60 L 800.89,254.89 L 801.95,254.18 L 803.01,253.46 L 804.07,252.74 L 805.13,252.03 L 806.18,251.31 L 807.24,250.59 L 808.30,249.87 L 809.36,249.15 L 810.42,248.43 L 811.48,247.71 L 812.53,246.98 L 813.59,246.26 L 814.65,245.54 L 815.71,244.81 L 816.77,244.09 L 817.83,243.36 L 818.89,242.64 L 819.94,241.91 L 821.00,241.18 L 822.06,240.46 L 823.12,239.73 L 824.18,239.00 L 825.24,238.28 L 826.30,237.55 L 827.35,236.82 L 828.41,236.09 L 829.47,235.36 L 830.53,234.64 L 831.59,233.91 L 832.65,233.18 L 833.70,232.45 L 834.76,231.72 L 835.82,231.00 L 836.88,230.27 L 837.94,229.54 L 839.00,228.82 L 840.06,228.09 L 841.11,227.36 L 842.17,226.64 L 843.23,225.91 L 844.29,225.19 L 845.35,224.46 L 846.41,223.74 L 847.47,223.02 L 848.52,222.29 L 849.58,221.57 L 850.64,220.85 L 851.70,220.13 L 852.76,219.41 L 853.82,218.69 L 854.87,217.97 L 855.93,217.26 L 856.99,216.54 L 858.05,215.82 L 859.11,215.11 L 860.17,214.40 L 861.23,213.68 L 862.28,212.97 L 863.34,212.26 L 864.40,211.55 L 865.46,210.84 L 866.52,210.13 L 867.58,209.43 L 868.64,208.72 L 869.69,208.02 L 870.75,207.32 L 871.81,206.61 L 872.87,205.91 L 873.93,205.22 L 874.99,204.52 L 876.04,203.82 L 877.10,203.13 L 878.16,202.43 L 879.22,201.74 L 880.28,201.05 L 881.34,200.36 L 882.40,199.67 L 883.45,198.98 L 884.51,198.30 L 885.57,197.61 L 886.63,196.93 L 887.69,196.25 L 888.75,195.57 L 889.81,194.89 L 890.86,194.21 L 891.92,193.54 L 892.98,192.86 L 894.04,192.19 L 895.10,191.52 L 896.16,190.85 L 897.21,190.18 L 898.27,189.51 L 899.33,188.84 L 900.39,188.18 L 901.45,187.52 L 902.51,186.85 L 903.57,186.19 L 904.62,185.54 L 905.68,184.88 L 906.74,184.22 L 907.80,183.57 L 908.86,182.92 L 909.92,182.26 L 910.97,181.61 L 912.03,180.96 L 913.09,180.32 L 914.15,179.67 L 915.21,179.03 L 916.27,178.38 L 917.33,177.74 L 918.38,177.10 L 919.44,176.46 L 920.50,175.82 L 921.56,175.19 L 922.62,174.55 L 923.68,173.92 L 924.74,173.29 L 925.79,172.65 L 926.85,172.02 L 927.91,171.40 L 928.97,170.77 L 930.03,170.14 L 931.09,169.52 L 932.14,168.89 L 933.20,168.27 L 934.26,167.65 L 935.32,167.03 L 936.38,166.41 L 937.44,165.79 L 938.50,165.18 L 939.55,164.56 L 940.61,163.95 L 941.67,163.33 L 942.73,162.72 L 943.79,162.11 L 944.85,161.50 L 945.91,160.89 L 946.96,160.28 L 948.02,159.68 L 949.08,159.07 L 950.14,158.47 L 951.20,157.86 L 952.26,157.26 L 953.31,156.66 L 954.37,156.06 L 955.43,155.45 L 956.49,154.86 L 957.55,154.26 L 958.61,153.66 L 959.67,153.06 L 960.72,152.47 L 961.78,151.87 L 962.84,151.28 L 963.90,150.69 L 964.96,150.09 L 966.02,149.50 L 967.08,148.91 L 968.13,148.32 L 969.19,147.73 L 970.25,147.14 L 971.31,146.55 L 972.37,145.97 L 973.43,145.38 L 974.48,144.79 L 975.54,144.21 L 976.60,143.62 L 977.66,143.04 L 978.72,142.46 L 979.78,141.87 L 980.84,141.29 L 981.89,140.71 L 982.95,140.13 L 984.01,139.55 L 985.07,138.97 L 986.13,138.39 L 987.19,137.81 L 988.25,137.23 L 989.30,136.65 L 990.36,136.07 L 991.42,135.49 L 992.48,134.92 L 993.54,134.34 L 994.60,133.76 L 995.65,133.19 L 996.71,132.61 L 997.77,132.04 L 998.83,131.46 L 999.89,130.89 L 1000.95,130.31 L 1002.01,129.74 L 1003.06,129.16 L 1004.12,128.59 L 1005.18,128.02 L 1006.24,127.44 L 1007.30,126.87 L 1008.36,126.30 L 1009.42,125.72 L 1010.47,125.15 L 1011.53,124.58 L 1012.59,124.01 L 1013.65,123.43 L 1014.71,122.86 L 1015.77,122.29 L 1016.82,121.72 L 1017.88,121.14 L 1018.94,120.57 L 1020.00,120.00"/>
<line x1="640.00" y1="430.00" x2="640.00" y2="660.00"/>
<line x1="640.00" y1="660.00" x2="1020.00" y2="660.00"/>
<path d="M 634.0,440.0 L 640.0,430.0 L 646.0,440.0" class="axis"/>
<path d="M 1010.0,654.0 L 1020.0,660.0 L 1010.0,666.0" class="axis"/>
<text class="label" x="622.00" y="450.00" text-anchor="end">Δθ</text>
<text class="label" x="1038.00" y="664.00" text-anchor="start">t</text>
<path class="zero" d="M 650.0,545.0 H 1010.0"/>
<path class="delta" d="M 640.00,545.00 L 641.06,546.49 L 642.12,547.99 L 643.18,549.48 L 644.23,550.97 L 645.29,552.46 L 646.35,553.95 L 647.41,555.44 L 648.47,556.92 L 649.53,558.41 L 650.58,559.89 L 651.64,561.36 L 652.70,562.84 L 653.76,564.30 L 654.82,565.77 L 655.88,567.23 L 656.94,568.68 L 657.99,570.13 L 659.05,571.58 L 660.11,573.02 L 661.17,574.45 L 662.23,575.88 L 663.29,577.30 L 664.35,578.71 L 665.40,580.11 L 666.46,581.51 L 667.52,582.90 L 668.58,584.28 L 669.64,585.65 L 670.70,587.02 L 671.75,588.37 L 672.81,589.72 L 673.87,591.05 L 674.93,592.37 L 675.99,593.69 L 677.05,594.99 L 678.11,596.28 L 679.16,597.56 L 680.22,598.83 L 681.28,600.08 L 682.34,601.32 L 683.40,602.55 L 684.46,603.77 L 685.52,604.97 L 686.57,606.16 L 687.63,607.33 L 688.69,608.49 L 689.75,609.64 L 690.81,610.77 L 691.87,611.88 L 692.92,612.98 L 693.98,614.06 L 695.04,615.13 L 696.10,616.17 L 697.16,617.21 L 698.22,618.22 L 699.28,619.22 L 700.33,620.19 L 701.39,621.15 L 702.45,622.09 L 703.51,623.01 L 704.57,623.91 L 705.63,624.80 L 706.69,625.66 L 707.74,626.50 L 708.80,627.32 L 709.86,628.12 L 710.92,628.90 L 711.98,629.65 L 713.04,630.39 L 714.09,631.10 L 715.15,631.79 L 716.21,632.45 L 717.27,633.10 L 718.33,633.72 L 719.39,634.31 L 720.45,634.88 L 721.50,635.43 L 722.56,635.95 L 723.62,636.45 L 724.68,636.92 L 725.74,637.37 L 726.80,637.79 L 727.86,638.19 L 728.91,638.56 L 729.97,638.90 L 731.03,639.21 L 732.09,639.50 L 733.15,639.76 L 734.21,639.99 L 735.26,640.20 L 736.32,640.37 L 737.38,640.52 L 738.44,640.64 L 739.50,640.73 L 740.56,640.80 L 741.62,640.83 L 742.67,640.83 L 743.73,640.81 L 744.79,640.75 L 745.85,640.67 L 746.91,640.55 L 747.97,640.40 L 749.03,640.23 L 750.08,640.02 L 751.14,639.78 L 752.20,639.52 L 753.26,639.22 L 754.32,638.89 L 755.38,638.52 L 756.43,638.13 L 757.49,637.71 L 758.55,637.25 L 759.61,636.77 L 760.67,636.25 L 761.73,635.70 L 762.79,635.12 L 763.84,634.51 L 764.90,633.87 L 765.96,633.19 L 767.02,632.49 L 768.08,631.75 L 769.14,630.98 L 770.19,630.18 L 771.25,629.35 L 772.31,628.49 L 773.37,627.60 L 774.43,626.68 L 775.49,625.72 L 776.55,624.74 L 777.60,623.73 L 778.66,622.69 L 779.72,621.61 L 780.78,620.51 L 781.84,619.38 L 782.90,618.22 L 783.96,617.03 L 785.01,615.82 L 786.07,614.57 L 787.13,613.30 L 788.19,612.00 L 789.25,610.68 L 790.31,609.33 L 791.36,607.95 L 792.42,606.55 L 793.48,605.12 L 794.54,603.67 L 795.60,602.19 L 796.66,600.69 L 797.72,599.17 L 798.77,597.62 L 799.83,596.05 L 800.89,594.46 L 801.95,592.85 L 803.01,591.22 L 804.07,589.57 L 805.13,587.90 L 806.18,586.22 L 807.24,584.51 L 808.30,582.79 L 809.36,581.05 L 810.42,579.30 L 811.48,577.53 L 812.53,575.75 L 813.59,573.95 L 814.65,572.15 L 815.71,570.33 L 816.77,568.50 L 817.83,566.65 L 818.89,564.80 L 819.94,562.94 L 821.00,561.08 L 822.06,559.20 L 823.12,557.32 L 824.18,555.43 L 825.24,553.54 L 826.30,551.65 L 827.35,549.75 L 828.41,547.85 L 829.47,545.95 L 830.53,544.05 L 831.59,542.15 L 832.65,540.25 L 833.70,538.35 L 834.76,536.46 L 835.82,534.57 L 836.88,532.68 L 837.94,530.80 L 839.00,528.92 L 840.06,527.06 L 841.11,525.20 L 842.17,523.35 L 843.23,521.50 L 844.29,519.67 L 845.35,517.85 L 846.41,516.05 L 847.47,514.25 L 848.52,512.47 L 849.58,510.70 L 850.64,508.95 L 851.70,507.21 L 852.76,505.49 L 853.82,503.78 L 854.87,502.10 L 855.93,500.43 L 856.99,498.78 L 858.05,497.15 L 859.11,495.54 L 860.17,493.95 L 861.23,492.38 L 862.28,490.83 L 863.34,489.31 L 864.40,487.81 L 865.46,486.33 L 866.52,484.88 L 867.58,483.45 L 868.64,482.05 L 869.69,480.67 L 870.75,479.32 L 871.81,478.00 L 872.87,476.70 L 873.93,475.43 L 874.99,474.18 L 876.04,472.97 L 877.10,471.78 L 878.16,470.62 L 879.22,469.49 L 880.28,468.39 L 881.34,467.31 L 882.40,466.27 L 883.45,465.26 L 884.51,464.28 L 885.57,463.32 L 886.63,462.40 L 887.69,461.51 L 888.75,460.65 L 889.81,459.82 L 890.86,459.02 L 891.92,458.25 L 892.98,457.51 L 894.04,456.81 L 895.10,456.13 L 896.16,455.49 L 897.21,454.88 L 898.27,454.30 L 899.33,453.75 L 900.39,453.23 L 901.45,452.75 L 902.51,452.29 L 903.57,451.87 L 904.62,451.48 L 905.68,451.11 L 906.74,450.78 L 907.80,450.48 L 908.86,450.22 L 909.92,449.98 L 910.97,449.77 L 912.03,449.60 L 913.09,449.45 L 914.15,449.33 L 915.21,449.25 L 916.27,449.19 L 917.33,449.17 L 918.38,449.17 L 919.44,449.20 L 920.50,449.27 L 921.56,449.36 L 922.62,449.48 L 923.68,449.63 L 924.74,449.80 L 925.79,450.01 L 926.85,450.24 L 927.91,450.50 L 928.97,450.79 L 930.03,451.10 L 931.09,451.44 L 932.14,451.81 L 933.20,452.21 L 934.26,452.63 L 935.32,453.08 L 936.38,453.55 L 937.44,454.05 L 938.50,454.57 L 939.55,455.12 L 940.61,455.69 L 941.67,456.28 L 942.73,456.90 L 943.79,457.55 L 944.85,458.21 L 945.91,458.90 L 946.96,459.61 L 948.02,460.35 L 949.08,461.10 L 950.14,461.88 L 951.20,462.68 L 952.26,463.50 L 953.31,464.34 L 954.37,465.20 L 955.43,466.09 L 956.49,466.99 L 957.55,467.91 L 958.61,468.85 L 959.67,469.81 L 960.72,470.78 L 961.78,471.78 L 962.84,472.79 L 963.90,473.83 L 964.96,474.87 L 966.02,475.94 L 967.08,477.02 L 968.13,478.12 L 969.19,479.23 L 970.25,480.36 L 971.31,481.51 L 972.37,482.67 L 973.43,483.84 L 974.48,485.03 L 975.54,486.23 L 976.60,487.45 L 977.66,488.68 L 978.72,489.92 L 979.78,491.17 L 980.84,492.44 L 981.89,493.72 L 982.95,495.01 L 984.01,496.31 L 985.07,497.63 L 986.13,498.95 L 987.19,500.28 L 988.25,501.63 L 989.30,502.98 L 990.36,504.35 L 991.42,505.72 L 992.48,507.10 L 993.54,508.49 L 994.60,509.89 L 995.65,511.29 L 996.71,512.70 L 997.77,514.12 L 998.83,515.55 L 999.89,516.98 L 1000.95,518.42 L 1002.01,519.87 L 1003.06,521.32 L 1004.12,522.77 L 1005.18,524.23 L 1006.24,525.70 L 1007.30,527.16 L 1008.36,528.64 L 1009.42,530.11 L 1010.47,531.59 L 1011.53,533.08 L 1012.59,534.56 L 1013.65,536.05 L 1014.71,537.54 L 1015.77,539.03 L 1016.82,540.52 L 1017.88,542.01 L 1018.94,543.51 L 1020.00,545.00"/>
</g>
</svg>